<?xml version="1.0" encoding="UTF-8"?>
<svg xmlns="http://www.w3.org/2000/svg" xmlns:xlink="http://www.w3.org/1999/xlink" viewBox="0 0 498.9 194.41"><defs><style>.cls-1,.cls-8,.cls-9{fill:none;}.cls-2{clip-path:url(#clip-path);}.cls-3{fill:#ccc;}.cls-4{fill:#fff;}.cls-5{fill:#51bfa0;}.cls-6{fill:#19202e;}.cls-7{fill:url(#linear-gradient);}.cls-8,.cls-9{stroke:#fff;stroke-miterlimit:10;stroke-width:33.15px;}.cls-9{stroke-dasharray:4.82 14.45;}.cls-10{fill:#ea4a58;}</style><clipPath id="clip-path" transform="translate(0 0)"><rect class="cls-1" width="498.9" height="194.41"/></clipPath><linearGradient id="linear-gradient" x1="-7021.37" y1="-1279.62" x2="-7016.93" y2="-1279.62" gradientTransform="matrix(104.08, 0, 0, -104.08, 730814.43, -133034.66)" gradientUnits="userSpaceOnUse"><stop offset="0" stop-color="#ea4a58"/><stop offset="0.12" stop-color="#ea505a"/><stop offset="0.56" stop-color="#f7ea8d"/><stop offset="0.91" stop-color="#6fbba1"/><stop offset="1" stop-color="#6fbba1"/></linearGradient></defs><title>Asset 90</title><g id="Layer_2" data-name="Layer 2"><g id="Layer_1-2" data-name="Layer 1"><g class="cls-2"><path class="cls-3" d="M474.06,2.77H27.61A24.86,24.86,0,0,0,2.77,27.61V88.29a24.86,24.86,0,0,0,24.84,24.83H474.06A24.86,24.86,0,0,0,498.9,88.29V27.61A24.86,24.86,0,0,0,474.06,2.77" transform="translate(0 0)"/><path class="cls-4" d="M471.28,106.4H24.83A20.88,20.88,0,0,1,4,85.51V24.84A20.89,20.89,0,0,1,24.83,4H471.28a20.89,20.89,0,0,1,20.89,20.89V85.51a20.89,20.89,0,0,1-20.89,20.89" transform="translate(0 0)"/><path class="cls-5" d="M471.29,110.35H24.84A24.86,24.86,0,0,1,0,85.52V24.84A24.86,24.86,0,0,1,24.84,0H471.29a24.86,24.86,0,0,1,24.83,24.84V85.52a24.86,24.86,0,0,1-24.83,24.83M24.84,7.9A17,17,0,0,0,7.9,24.84V85.52a17,17,0,0,0,16.94,16.93H471.29a17,17,0,0,0,16.93-16.93V24.84A17,17,0,0,0,471.29,7.9Z" transform="translate(0 0)"/><path class="cls-5" d="M376.7,4h94.58a20.89,20.89,0,0,1,20.89,20.89V85.51a20.89,20.89,0,0,1-20.89,20.89H376.7Z" transform="translate(0 0)"/><path class="cls-5" d="M471.28,110.35H372.74V0h98.54a24.87,24.87,0,0,1,24.85,24.83V85.51a24.87,24.87,0,0,1-24.85,24.84m-90.63-7.9h90.63a17,17,0,0,0,16.94-16.94V24.83A17,17,0,0,0,471.28,7.9H380.65Z" transform="translate(0 0)"/><path class="cls-4" d="M427.49,90a7.89,7.89,0,0,1-5.94-2.69l-24.79-28.2a7.9,7.9,0,1,1,11.87-10.43l18.59,21.14,37.52-46.6a7.91,7.91,0,1,1,12.32,9.92L433.64,87.09a7.92,7.92,0,0,1-6,3h-.16" transform="translate(0 0)"/><path class="cls-6" d="M31.65,53.19a11.84,11.84,0,0,1,6.3-6.3,12,12,0,0,1,9.26,0,11.93,11.93,0,0,1,6.3,6.3,12.11,12.11,0,0,1,0,9.26,11.84,11.84,0,0,1-6.3,6.3,12,12,0,0,1-9.26,0,11.75,11.75,0,0,1-6.3-6.3,12,12,0,0,1,0-9.26" transform="translate(0 0)"/><path class="cls-6" d="M68.3,53.19a11.8,11.8,0,0,1,2.53-3.76,12,12,0,0,1,3.76-2.54,12,12,0,0,1,9.26,0,11.84,11.84,0,0,1,6.3,6.3,12,12,0,0,1,0,9.26,11.75,11.75,0,0,1-6.3,6.3,12,12,0,0,1-9.26,0,12,12,0,0,1-3.76-2.53,11.85,11.85,0,0,1-2.53-3.77,11.87,11.87,0,0,1,0-9.26" transform="translate(0 0)"/><path class="cls-6" d="M104.94,53.19a11.84,11.84,0,0,1,6.3-6.3,12,12,0,0,1,9.26,0,11.93,11.93,0,0,1,6.3,6.3,12,12,0,0,1,0,9.26,11.84,11.84,0,0,1-6.3,6.3,12,12,0,0,1-9.26,0,11.75,11.75,0,0,1-6.3-6.3,12,12,0,0,1,0-9.26" transform="translate(0 0)"/><path class="cls-6" d="M141.59,53.19a11.8,11.8,0,0,1,2.53-3.76,12.11,12.11,0,0,1,3.76-2.54,12,12,0,0,1,9.26,0,11.84,11.84,0,0,1,6.3,6.3,12,12,0,0,1,0,9.26,11.75,11.75,0,0,1-6.3,6.3,12,12,0,0,1-9.26,0,12.08,12.08,0,0,1-3.76-2.53,11.85,11.85,0,0,1-2.53-3.77,11.87,11.87,0,0,1,0-9.26" transform="translate(0 0)"/><path class="cls-6" d="M178.23,53.19a11.84,11.84,0,0,1,6.3-6.3,12,12,0,0,1,9.26,0,12,12,0,0,1,3.76,2.54,11.8,11.8,0,0,1,2.53,3.76,11.87,11.87,0,0,1,0,9.26,11.85,11.85,0,0,1-2.53,3.77,12,12,0,0,1-3.76,2.53,12,12,0,0,1-9.26,0,12,12,0,0,1-3.77-2.53,12.19,12.19,0,0,1-2.53-3.77,12,12,0,0,1,0-9.26" transform="translate(0 0)"/><path class="cls-6" d="M214.88,53.19a11.8,11.8,0,0,1,2.53-3.76,12.11,12.11,0,0,1,3.76-2.54,12,12,0,0,1,9.26,0,11.84,11.84,0,0,1,6.3,6.3,12,12,0,0,1,0,9.26,11.75,11.75,0,0,1-6.3,6.3,12,12,0,0,1-9.26,0,12.08,12.08,0,0,1-3.76-2.53,11.85,11.85,0,0,1-2.53-3.77,12,12,0,0,1,0-9.26" transform="translate(0 0)"/><path class="cls-6" d="M251.52,53.19a11.84,11.84,0,0,1,6.3-6.3,12,12,0,0,1,9.26,0,11.93,11.93,0,0,1,6.3,6.3,12,12,0,0,1,0,9.26,11.84,11.84,0,0,1-6.3,6.3,12,12,0,0,1-9.26,0,11.75,11.75,0,0,1-6.3-6.3,12,12,0,0,1,0-9.26" transform="translate(0 0)"/><path class="cls-6" d="M288.17,53.19a11.84,11.84,0,0,1,6.3-6.3,12,12,0,0,1,9.26,0,12.11,12.11,0,0,1,3.76,2.54A11.8,11.8,0,0,1,310,53.19a12,12,0,0,1,0,9.26,11.85,11.85,0,0,1-2.53,3.77,12.08,12.08,0,0,1-3.76,2.53,12,12,0,0,1-9.26,0,11.75,11.75,0,0,1-6.3-6.3,12,12,0,0,1,0-9.26" transform="translate(0 0)"/><path class="cls-6" d="M324.81,53.19a11.84,11.84,0,0,1,6.3-6.3,12,12,0,0,1,9.26,0,12,12,0,0,1,3.76,2.54,11.8,11.8,0,0,1,2.53,3.76,11.87,11.87,0,0,1,0,9.26,11.85,11.85,0,0,1-2.53,3.77,12,12,0,0,1-3.76,2.53,12,12,0,0,1-9.26,0,12,12,0,0,1-3.77-2.53,12.19,12.19,0,0,1-2.53-3.77,12,12,0,0,1,0-9.26" transform="translate(0 0)"/><polyline class="cls-7" points="16.12 137.64 478.65 137.64 478.65 164.31 16.12 164.31"/><line class="cls-8" x1="16.12" y1="150.97" x2="18.57" y2="150.97"/><line class="cls-9" x1="33.02" y1="150.97" x2="468.97" y2="150.97"/><line class="cls-8" x1="476.19" y1="150.97" x2="478.65" y2="150.97"/><polygon class="cls-10" points="22.13 174.75 23.98 187.16 24.03 187.16 26.01 174.75 29.25 174.75 31.22 187.16 31.28 187.16 33.13 174.75 36.37 174.75 33.32 191.54 29.54 191.54 27.65 179.36 27.61 179.36 25.73 191.54 21.94 191.54 18.88 174.75 22.13 174.75"/><polygon class="cls-10" points="47.71 177.52 41.72 177.52 41.72 181.47 47.36 181.47 47.36 184.25 41.72 184.25 41.72 188.76 47.95 188.76 47.95 191.54 38.33 191.54 38.33 174.75 47.71 174.75 47.71 177.52"/><path class="cls-10" d="M57.68,174.75l4.45,16.79H58.6L57.82,188H53.35l-.77,3.55H49.05l4.44-16.79Zm-.45,10.46-1.62-7.55h0l-1.63,7.55Z" transform="translate(0 0)"/><polygon class="cls-10" points="67.28 181.47 67.33 181.47 71.6 174.75 75.27 174.75 70.71 181.95 75.79 191.54 71.98 191.54 68.53 184.65 67.28 186.55 67.28 191.54 63.89 191.54 63.89 174.75 67.28 174.75 67.28 181.47"/><path class="cls-5" d="M401.46,189.4a5.85,5.85,0,0,0,.09,1.07,1.92,1.92,0,0,0,.36.82,1.83,1.83,0,0,0,.69.51,2.7,2.7,0,0,0,1.09.19,2.23,2.23,0,0,0,1.41-.5,1.93,1.93,0,0,0,.62-1.57,2.81,2.81,0,0,0-.16-1,2,2,0,0,0-.5-.75,4.4,4.4,0,0,0-.93-.6c-.39-.17-.86-.36-1.42-.55a11.81,11.81,0,0,1-2-.82,5.29,5.29,0,0,1-1.37-1,3.67,3.67,0,0,1-.81-1.39,5.55,5.55,0,0,1-.26-1.82,4.66,4.66,0,0,1,1.39-3.71,5.51,5.51,0,0,1,3.8-1.22,8.43,8.43,0,0,1,2.08.24,4.38,4.38,0,0,1,1.65.8,3.83,3.83,0,0,1,1.09,1.41,5.15,5.15,0,0,1,.38,2.06V182h-3.24a3.33,3.33,0,0,0-.43-1.85,1.55,1.55,0,0,0-1.41-.64,2.37,2.37,0,0,0-.94.16,1.62,1.62,0,0,0-.6.44,1.38,1.38,0,0,0-.3.62,3,3,0,0,0-.09.73,2.57,2.57,0,0,0,.33,1.31,2.92,2.92,0,0,0,1.41,1l2.61,1.13a7.8,7.8,0,0,1,1.58.88,4.37,4.37,0,0,1,1,1,3.25,3.25,0,0,1,.5,1.16,6.8,6.8,0,0,1,.14,1.41,4.62,4.62,0,0,1-1.54,3.87,6.74,6.74,0,0,1-4.29,1.21c-1.91,0-3.28-.41-4.1-1.25a4.81,4.81,0,0,1-1.24-3.57v-.68h3.39Z" transform="translate(0 0)"/><polygon class="cls-5" points="421.36 180.14 417.69 180.14 417.69 194.16 414.3 194.16 414.3 180.14 410.63 180.14 410.63 177.36 421.36 177.36 421.36 180.14"/><path class="cls-5" d="M429.66,177.36a4.75,4.75,0,0,1,3.29,1.07,4.2,4.2,0,0,1,1.17,3.26,5.08,5.08,0,0,1-.68,2.76,3.14,3.14,0,0,1-2.12,1.38v0a3,3,0,0,1,1.86.82,3.54,3.54,0,0,1,.73,2c0,.32.06.66.07,1s0,.78,0,1.23c0,.89.08,1.57.14,2.05a1.3,1.3,0,0,0,.61,1v.14h-3.67a1.83,1.83,0,0,1-.33-.81,9.29,9.29,0,0,1-.09-1l-.09-3.22a2.73,2.73,0,0,0-.5-1.56,1.81,1.81,0,0,0-1.5-.56h-1.81v7.1H423.4V177.36Zm-1.46,7.34a2.8,2.8,0,0,0,1.88-.57,2.49,2.49,0,0,0,.66-1.95,2.07,2.07,0,0,0-2.35-2.32h-1.6v4.84Z" transform="translate(0 0)"/><path class="cls-5" d="M436.89,182.24a7.65,7.65,0,0,1,.77-2.76,4.35,4.35,0,0,1,1.73-1.8,7.41,7.41,0,0,1,6.07,0,4.35,4.35,0,0,1,1.73,1.8,7.85,7.85,0,0,1,.77,2.76,34.61,34.61,0,0,1,0,7,7.86,7.86,0,0,1-.77,2.75,4.19,4.19,0,0,1-1.73,1.76,7.86,7.86,0,0,1-6.07,0,4.19,4.19,0,0,1-1.73-1.76,7.65,7.65,0,0,1-.77-2.75,34.61,34.61,0,0,1,0-7m3.29,6.4a7.35,7.35,0,0,0,.33,1.92,2.11,2.11,0,0,0,.7,1.09,2.34,2.34,0,0,0,2.43,0,2.11,2.11,0,0,0,.7-1.09,7.8,7.8,0,0,0,.33-1.92c.05-.79.08-1.75.08-2.88s0-2.08-.08-2.87a8,8,0,0,0-.33-1.92,2.1,2.1,0,0,0-.7-1.1,2.34,2.34,0,0,0-2.43,0,2.1,2.1,0,0,0-.7,1.1,7.51,7.51,0,0,0-.33,1.92c-.05.79-.08,1.74-.08,2.87s0,2.09.08,2.88" transform="translate(0 0)"/><polygon class="cls-5" points="458.72 188.86 458.77 188.86 458.77 177.36 461.87 177.36 461.87 194.16 458.02 194.16 453.88 182.4 453.83 182.4 453.83 194.16 450.73 194.16 450.73 177.36 454.63 177.36 458.72 188.86"/><path class="cls-5" d="M472.16,181.38a3.35,3.35,0,0,0-.34-.9,2.32,2.32,0,0,0-.6-.68,1.46,1.46,0,0,0-.88-.27,1.83,1.83,0,0,0-1.76,1.36,13.11,13.11,0,0,0-.55,4.52c0,1,0,1.91.1,2.72a9.91,9.91,0,0,0,.34,2.08,2.94,2.94,0,0,0,.7,1.32,1.6,1.6,0,0,0,1.19.46,1.81,1.81,0,0,0,.67-.16,2.25,2.25,0,0,0,.68-.5,2.42,2.42,0,0,0,.53-.84,3,3,0,0,0,.21-1.18v-1.72h-2.23V185.1h5.48v9.05h-2.49V192.6h0a3.56,3.56,0,0,1-1.47,1.4,4.82,4.82,0,0,1-2.06.41,5.19,5.19,0,0,1-2.53-.54,3.72,3.72,0,0,1-1.53-1.67,8.58,8.58,0,0,1-.74-2.79,35.65,35.65,0,0,1-.19-3.84,23.82,23.82,0,0,1,.27-3.72,7.69,7.69,0,0,1,.93-2.67,4.21,4.21,0,0,1,1.75-1.6,6,6,0,0,1,2.7-.55,5.07,5.07,0,0,1,4,1.38,5.72,5.72,0,0,1,1.23,3.94h-3.25a4.63,4.63,0,0,0-.1-1" transform="translate(0 0)"/></g></g></g></svg>